<svg width="16" height="17" viewBox="0 0 16 17" fill="none" xmlns="http://www.w3.org/2000/svg">
<path d="M7.75 0.260254C5.67893 0.260254 4 1.93919 4 4.01025C4 6.08132 5.67893 7.76025 7.75 7.76025C9.82107 7.76025 11.5 6.08132 11.5 4.01025C11.5 1.93919 9.82107 0.260254 7.75 0.260254Z" fill="#00A6DE"/>
<path d="M3.75 9.76025C1.67893 9.76025 0 11.4392 0 13.5103V14.6985C0 15.4518 0.545884 16.094 1.28927 16.2154C5.5681 16.914 9.9319 16.914 14.2107 16.2154C14.9541 16.094 15.5 15.4518 15.5 14.6985V13.5103C15.5 11.4392 13.8211 9.76025 11.75 9.76025H11.4091C11.2246 9.76025 11.0413 9.78943 10.8659 9.84669L10.0004 10.1293C8.53813 10.6068 6.96187 10.6068 5.49959 10.1293L4.63407 9.84669C4.45869 9.78943 4.27536 9.76025 4.09087 9.76025H3.75Z" fill="#00A6DE"/>
</svg>
