<svg width="23" height="17" viewBox="0 0 23 17" fill="none" xmlns="http://www.w3.org/2000/svg">
<path d="M6.30462 0.752008C6.6495 0.77719 6.93246 1.03491 6.98967 1.37594L8.79002 12.1084L11.029 4.29345C11.1212 3.97164 11.4155 3.74989 11.7503 3.75002C12.085 3.75014 12.3792 3.9721 12.4711 4.29398L13.9894 9.60775L14.8605 8.12089C14.995 7.89117 15.2413 7.75002 15.5076 7.75002H17.3645C17.683 6.73574 18.6306 6.00002 19.75 6.00002C21.1307 6.00002 22.25 7.1193 22.25 8.50002C22.25 9.88073 21.1307 11 19.75 11C18.6306 11 17.683 10.2643 17.3645 9.25002H15.9374L14.3971 11.8791C14.2454 12.1382 13.9537 12.2818 13.6559 12.2441C13.358 12.2064 13.1113 11.9947 13.0289 11.7061L11.749 7.22659L9.31948 15.7066C9.22297 16.0434 8.90606 16.2686 8.5562 16.2488C8.20634 16.2291 7.91679 15.9697 7.85882 15.6241L6.01937 4.65859L4.70622 8.73022C4.6063 9.04003 4.31795 9.25002 3.99242 9.25002H0.75C0.335786 9.25002 0 8.91423 0 8.50002C0 8.0858 0.335786 7.75002 0.75 7.75002H3.44627L5.5362 1.26981C5.64234 0.940704 5.95974 0.726826 6.30462 0.752008Z" fill="white"/>
</svg>
