<svg width="21" height="21" viewBox="0 0 21 21" fill="none" xmlns="http://www.w3.org/2000/svg">
<path d="M11.1364 18.9677C10.6092 18.9677 10.1818 19.4227 10.1818 19.9839C10.1818 20.5451 10.6092 21 11.1364 21H18.7727C20.0028 21 21 19.9385 21 18.629V2.37097C21 1.06152 20.0028 0 18.7727 0H11.1364C10.6092 0 10.1818 0.454938 10.1818 1.01613C10.1818 1.57732 10.6092 2.03226 11.1364 2.03226L18.7727 2.03226C18.9485 2.03226 19.0909 2.1839 19.0909 2.37097V18.629C19.0909 18.8161 18.9485 18.9677 18.7727 18.9677H11.1364Z" fill="white"/>
<path fill-rule="evenodd" clip-rule="evenodd" d="M14.3221 13.7045C15.2007 13.7045 15.913 12.9463 15.913 12.0109V8.97541C15.913 8.04008 15.2007 7.28186 14.3221 7.28186L8.45152 7.28186C8.44322 7.18237 8.43453 7.08292 8.42545 6.98349L8.35669 6.23036C8.25177 5.08131 7.10556 4.39317 6.12756 4.89211C4.04764 5.95321 2.16472 7.40525 0.569361 9.17841L0.443107 9.31873C-0.147702 9.97538 -0.147702 11.0109 0.443106 11.6676L0.569361 11.8079C2.16472 13.5811 4.04764 15.0331 6.12756 16.0942C7.10555 16.5932 8.25178 15.905 8.35669 14.756L8.42545 14.0028C8.43453 13.9034 8.44322 13.804 8.45152 13.7045H14.3221ZM7.5665 11.6722C7.22749 11.6722 6.92778 11.8609 6.75829 12.1475C6.67574 12.287 6.62408 12.4497 6.61381 12.6251C6.59072 13.0192 6.56122 13.413 6.52531 13.8062L6.50535 14.0248C5.18675 13.3015 3.96221 12.4006 2.86157 11.3453C2.57603 11.0715 2.29882 10.7873 2.03048 10.4932C3.33317 9.06509 4.84465 7.87255 6.50535 6.96149L6.52531 7.18009C6.56122 7.57337 6.59072 7.96714 6.61381 8.36124C6.64519 8.89683 7.06239 9.31411 7.5665 9.31411H14.0039V11.6722H7.5665Z" fill="white"/>
</svg>
