<svg width="21" height="21" viewBox="0 0 21 21" fill="none" xmlns="http://www.w3.org/2000/svg">
<path fill-rule="evenodd" clip-rule="evenodd" d="M11.8846 1.06329C11.8846 0.476052 11.2647 0 10.5 0C9.73529 0 9.11536 0.476052 9.11536 1.06329V1.86076H8.34354C5.26261 1.86076 2.71266 3.70027 2.52034 6.06155L2.21433 9.81864C2.09765 11.2511 1.4714 12.6315 0.403754 13.8096C-0.560901 14.874 0.297883 16.3441 1.97459 16.4986L6.69224 16.9333V18.076C6.69224 19.6909 8.39704 21 10.5 21C12.603 21 14.3078 19.6909 14.3078 18.076V16.9333L19.0254 16.4986C20.7021 16.3441 21.5609 14.874 20.5962 13.8096C19.5286 12.6315 18.9023 11.2511 18.7857 9.81864L18.4797 6.06155C18.2873 3.70027 15.7374 1.86076 12.6565 1.86076H11.8846V1.06329ZM8.34354 3.4557C6.35934 3.4557 4.71711 4.64039 4.59325 6.16111L4.28724 9.91821C4.14684 11.6419 3.39324 13.3031 2.10851 14.7207C2.03879 14.7976 2.10085 14.9038 2.22205 14.915L7.39737 15.3919C9.4584 15.5818 11.5416 15.5818 13.6026 15.3919L18.778 14.915C18.8991 14.9038 18.9612 14.7976 18.8915 14.7207C17.6068 13.3031 16.8532 11.6419 16.7128 9.91821L16.4067 6.16111C16.2829 4.64039 14.6407 3.4557 12.6565 3.4557H8.34354ZM10.5 19.4051C9.54411 19.4051 8.7692 18.81 8.7692 18.076V17.2785H12.2308V18.076C12.2308 18.81 11.4559 19.4051 10.5 19.4051Z" fill="white"/>
</svg>
