<svg width="19" height="19" viewBox="0 0 19 19" fill="none" xmlns="http://www.w3.org/2000/svg">
<path fill-rule="evenodd" clip-rule="evenodd" d="M6.05943 1.97033C4.78821 1.82825 3.4723 1.82825 2.20109 1.97033C1.8922 2.00485 1.6486 2.24944 1.61385 2.5465C1.46205 3.84444 1.46205 5.15565 1.61385 6.45359C1.6486 6.75065 1.8922 6.99524 2.20109 7.02976C3.4723 7.17184 4.78821 7.17184 6.05943 7.02976C6.36832 6.99524 6.61192 6.75065 6.64666 6.45359C6.79847 5.15565 6.79847 3.84444 6.64666 2.5465C6.61192 2.24944 6.36832 2.00485 6.05943 1.97033ZM2.03448 0.479609C3.41642 0.325156 4.84409 0.325156 6.22604 0.479609C7.21688 0.59035 8.01932 1.37034 8.1365 2.37225C8.30185 3.78596 8.30185 5.21413 8.1365 6.62784C8.01932 7.62975 7.21688 8.40974 6.22604 8.52048C4.84409 8.67493 3.41642 8.67493 2.03448 8.52048C1.04364 8.40974 0.241192 7.62975 0.12401 6.62784C-0.0413366 5.21413 -0.0413366 3.78596 0.12401 2.37225C0.241192 1.37034 1.04364 0.59035 2.03448 0.479609Z" fill="#00A6DE"/>
<path fill-rule="evenodd" clip-rule="evenodd" d="M6.05943 11.9703C4.78821 11.8282 3.4723 11.8282 2.20109 11.9703C1.8922 12.0049 1.6486 12.2494 1.61385 12.5465C1.46205 13.8444 1.46205 15.1557 1.61385 16.4536C1.6486 16.7506 1.8922 16.9952 2.20109 17.0298C3.4723 17.1718 4.78821 17.1718 6.05943 17.0298C6.36832 16.9952 6.61192 16.7506 6.64666 16.4536C6.79847 15.1556 6.79847 13.8444 6.64666 12.5465C6.61192 12.2494 6.36832 12.0049 6.05943 11.9703ZM2.03448 10.4796C3.41642 10.3252 4.84409 10.3252 6.22604 10.4796C7.21688 10.5904 8.01932 11.3703 8.1365 12.3722C8.30185 13.786 8.30185 15.2141 8.1365 16.6278C8.01932 17.6298 7.21688 18.4097 6.22604 18.5205C4.84409 18.6749 3.41642 18.6749 2.03448 18.5205C1.04364 18.4097 0.241192 17.6298 0.12401 16.6278C-0.0413366 15.2141 -0.0413366 13.786 0.12401 12.3722C0.241192 11.3703 1.04364 10.5904 2.03448 10.4796Z" fill="#00A6DE"/>
<path fill-rule="evenodd" clip-rule="evenodd" d="M16.0594 1.97033C14.7882 1.82825 13.4723 1.82825 12.2011 1.97033C11.8922 2.00485 11.6486 2.24944 11.6139 2.5465C11.462 3.84444 11.462 5.15565 11.6139 6.45359C11.6486 6.75065 11.8922 6.99524 12.2011 7.02976C13.4723 7.17184 14.7882 7.17184 16.0594 7.02976C16.3683 6.99524 16.6119 6.75065 16.6467 6.45359C16.7985 5.15565 16.7985 3.84444 16.6467 2.5465C16.6119 2.24944 16.3683 2.00485 16.0594 1.97033ZM12.0345 0.479609C13.4164 0.325156 14.8441 0.325156 16.226 0.479609C17.2169 0.59035 18.0193 1.37034 18.1365 2.37225C18.3019 3.78596 18.3019 5.21413 18.1365 6.62784C18.0193 7.62975 17.2169 8.40974 16.226 8.52048C14.8441 8.67493 13.4164 8.67493 12.0345 8.52048C11.0436 8.40974 10.2412 7.62975 10.124 6.62784C9.95866 5.21413 9.95866 3.78596 10.124 2.37225C10.2412 1.37034 11.0436 0.59035 12.0345 0.479609Z" fill="#00A6DE"/>
<path fill-rule="evenodd" clip-rule="evenodd" d="M16.0594 11.9703C14.7882 11.8282 13.4723 11.8282 12.2011 11.9703C11.8922 12.0049 11.6486 12.2494 11.6139 12.5465C11.462 13.8444 11.462 15.1557 11.6139 16.4536C11.6486 16.7506 11.8922 16.9952 12.2011 17.0298C13.4723 17.1718 14.7882 17.1718 16.0594 17.0298C16.3683 16.9952 16.6119 16.7506 16.6467 16.4536C16.7985 15.1556 16.7985 13.8444 16.6467 12.5465C16.6119 12.2494 16.3683 12.0049 16.0594 11.9703ZM12.0345 10.4796C13.4164 10.3252 14.8441 10.3252 16.226 10.4796C17.2169 10.5904 18.0193 11.3703 18.1365 12.3722C18.3019 13.786 18.3019 15.2141 18.1365 16.6278C18.0193 17.6298 17.2169 18.4097 16.226 18.5205C14.8441 18.6749 13.4164 18.6749 12.0345 18.5205C11.0436 18.4097 10.2412 17.6298 10.124 16.6278C9.95866 15.2141 9.95866 13.786 10.124 12.3722C10.2412 11.3703 11.0436 10.5904 12.0345 10.4796Z" fill="#00A6DE"/>
</svg>
