<svg width="21" height="21" viewBox="0 0 21 21" fill="none" xmlns="http://www.w3.org/2000/svg">
<path d="M11.3723 0.549354C10.9836 -0.183117 10.0164 -0.183119 9.62771 0.549354L6.89057 5.70781C6.69858 6.06964 6.36673 6.31657 5.98847 6.37904L0.858895 7.22629C-0.00265459 7.3686 -0.304863 8.55816 0.366102 9.16606L4.18742 12.6282C4.54115 12.9487 4.70747 13.4542 4.62155 13.9477L3.62195 19.6883C3.46393 20.5957 4.33507 21.3008 5.08252 20.8704L9.91267 18.0892C10.2803 17.8775 10.7197 17.8775 11.0873 18.0892L15.9175 20.8704C16.6649 21.3008 17.5361 20.5957 17.3781 19.6883L16.3785 13.9477C16.2925 13.4542 16.4589 12.9487 16.8126 12.6282L20.6339 9.16606C21.3049 8.55816 21.0027 7.3686 20.1411 7.22629L15.0115 6.37904C14.6333 6.31657 14.3014 6.06964 14.1094 5.70781L11.3723 0.549354Z" fill="#00A6DE"/>
</svg>
