<svg width="21" height="21" viewBox="0 0 21 21" fill="none" xmlns="http://www.w3.org/2000/svg">
<path d="M12.1154 7.60201C12.1154 7.13954 11.7538 6.76463 11.3077 6.76463H4.84615C4.40008 6.76463 4.03846 7.13954 4.03846 7.60201C4.03846 8.06448 4.40008 8.43938 4.84615 8.43938H11.3077C11.7538 8.43938 12.1154 8.06448 12.1154 7.60201Z" fill="#00A6DE"/>
<path d="M11.0385 10.9515C11.0385 10.489 10.6768 10.1141 10.2308 10.1141H4.84615C4.40008 10.1141 4.03846 10.489 4.03846 10.9515C4.03846 11.414 4.40008 11.7889 4.84615 11.7889H10.2308C10.6768 11.7889 11.0385 11.414 11.0385 10.9515Z" fill="#00A6DE"/>
<path d="M11.3077 13.4636C11.7538 13.4636 12.1154 13.8385 12.1154 14.301C12.1154 14.7635 11.7538 15.1384 11.3077 15.1384H4.84615C4.40008 15.1384 4.03846 14.7635 4.03846 14.301C4.03846 13.8385 4.40008 13.4636 4.84615 13.4636H11.3077Z" fill="#00A6DE"/>
<path fill-rule="evenodd" clip-rule="evenodd" d="M4.03846 21H18.0385C19.6741 21 21 19.6253 21 17.9296V11.7889C21 11.3264 20.6384 10.9515 20.1923 10.9515H16.6923V2.23522C16.6923 0.645992 14.9597 -0.278433 13.7123 0.645286L13.5238 0.784886C12.6832 1.40733 11.5447 1.40524 10.7002 0.779874C9.29607 -0.259958 7.39624 -0.259958 5.99208 0.779874C5.1476 1.40524 4.00907 1.40733 3.16854 0.784886L2.98003 0.645286C1.73266 -0.278433 0 0.645992 0 2.23522V16.8131C0 19.1255 1.80808 21 4.03846 21ZM6.931 2.14267C7.7735 1.51877 8.91881 1.51877 9.76131 2.14267C11.1635 3.18104 13.0566 3.18898 14.4627 2.14768L14.6512 2.00809C14.8294 1.87613 15.0769 2.00819 15.0769 2.23522V17.9296C15.0769 18.4322 15.1934 18.9065 15.3998 19.3253H4.03846C2.70023 19.3253 1.61538 18.2005 1.61538 16.8131V2.23522C1.61538 2.00819 1.86291 1.87613 2.0411 2.00809L2.22962 2.14769C3.63575 3.18898 5.52881 3.18104 6.931 2.14267ZM16.6923 17.9296V12.6263H19.3846V17.9296C19.3846 18.7004 18.7819 19.3253 18.0385 19.3253C17.295 19.3253 16.6923 18.7004 16.6923 17.9296Z" fill="#00A6DE"/>
</svg>
